<?xml version="1.0" standalone="no"?>
<!DOCTYPE svg PUBLIC "-//W3C//DTD SVG 20010904//EN"
 "http://www.w3.org/TR/2001/REC-SVG-20010904/DTD/svg10.dtd">
<svg version="1.0" xmlns="http://www.w3.org/2000/svg"
 width="1024.000000pt" height="1024.000000pt" viewBox="0 0 1024.000000 1024.000000"
 preserveAspectRatio="xMidYMid meet">

<g transform="translate(0.000000,1024.000000) scale(0.100000,-0.100000)"
fill="#000000" stroke="none">
<path d="M6210 7640 c-226 -27 -424 -155 -536 -346 -14 -24 -27 -44 -29 -44
-1 0 -29 16 -61 35 -265 160 -605 134 -851 -65 -97 -78 -188 -220 -229 -356
-29 -95 -25 -285 9 -389 50 -152 74 -182 445 -556 l342 -345 -417 -417 -418
-416 -325 323 c-371 369 -400 391 -560 446 -100 34 -288 39 -400 11 -162 -40
-285 -120 -393 -254 -103 -129 -151 -269 -150 -442 1 -84 6 -127 23 -180 28
-87 72 -179 110 -227 l30 -36 -48 -28 c-133 -77 -235 -186 -298 -319 -48 -101
-64 -174 -64 -290 0 -131 20 -221 71 -325 37 -73 60 -103 182 -227 l141 -144
-105 -104 c-57 -58 -112 -120 -121 -138 -43 -81 -31 -181 29 -248 51 -56 104
-81 173 -82 83 0 129 27 250 147 l104 105 136 -132 c143 -141 204 -181 340
-227 93 -31 270 -39 374 -15 126 27 246 94 342 189 45 45 96 107 114 139 20
35 36 54 43 50 7 -4 26 -17 43 -30 40 -30 167 -87 224 -101 137 -33 308 -20
439 33 164 67 299 191 375 347 61 123 79 211 73 353 -4 88 -11 126 -34 192
-54 149 -75 175 -440 543 l-343 345 415 415 415 415 327 -326 c326 -324 369
-361 471 -413 129 -65 342 -88 482 -52 238 61 433 241 517 477 24 67 27 88 27
214 0 127 -3 148 -28 220 -29 85 -62 148 -107 206 l-29 37 30 12 c114 47 264
206 325 343 77 175 72 424 -11 589 -46 91 -83 139 -203 260 l-115 118 107 108
c59 60 113 125 122 145 19 45 20 147 1 190 -31 73 -131 137 -214 137 -79 0
-112 -20 -233 -137 l-115 -112 -80 80 c-92 93 -177 164 -251 207 -127 75 -294
110 -443 92z m198 -484 c53 -27 778 -751 802 -800 22 -46 27 -127 10 -187 -13
-46 -72 -114 -120 -139 -97 -49 -187 -35 -285 46 -124 101 -233 101 -332 -1
-42 -44 -53 -62 -63 -109 -13 -64 -7 -105 22 -156 11 -19 124 -137 252 -261
246 -241 282 -287 293 -377 11 -95 -45 -200 -130 -244 -52 -27 -163 -30 -219
-5 -53 22 -1634 1597 -1659 1652 -23 49 -25 151 -5 199 37 89 131 151 231 150
96 0 129 -25 385 -278 129 -129 251 -242 269 -251 51 -25 145 -24 197 3 58 30
110 94 124 153 19 78 -1 147 -63 218 -100 115 -88 262 30 364 55 48 190 60
261 23z m-2962 -2093 c44 -15 127 -94 849 -811 440 -437 811 -812 824 -833 34
-56 40 -151 14 -210 -29 -65 -67 -105 -129 -135 -46 -23 -64 -26 -113 -21 -32
2 -73 13 -92 22 -19 10 -144 127 -279 261 -157 156 -259 249 -282 259 -51 21
-143 19 -194 -4 -126 -57 -172 -230 -88 -334 69 -87 88 -128 92 -197 6 -101
-34 -173 -125 -227 -62 -36 -162 -37 -227 -2 -67 36 -781 745 -812 805 -52
103 -17 236 79 301 100 67 208 63 298 -10 82 -68 125 -87 194 -87 164 0 272
169 204 320 -14 32 -90 115 -269 295 -162 162 -254 263 -264 287 -22 51 -20
143 3 193 23 51 100 120 149 133 57 15 114 14 168 -5z"/>
</g>
</svg>
